<?xml version="1.0" encoding="utf-8"?>
<!-- Generator: Adobe Illustrator 19.2.0, SVG Export Plug-In . SVG Version: 6.00 Build 0)  -->
<svg version="1.1" xmlns="http://www.w3.org/2000/svg" xmlns:xlink="http://www.w3.org/1999/xlink" x="0px" y="0px"
	 viewBox="0 0 533.4 265.3" style="enable-background:new 0 0 533.4 265.3;" xml:space="preserve">
<style type="text/css">
	.st0{fill-rule:evenodd;clip-rule:evenodd;fill:#FFFFFF;}
	.st1{fill-rule:evenodd;clip-rule:evenodd;fill:#9F2B2A;}
</style>
<g id="WMF_objects">
	<polygon class="st0" points="234,6.8 236.5,50.1 236.6,50.1 236.7,50.5 239.8,51.9 242.9,53.5 246,55.1 249.1,56.8 252.1,58.6 
		255,60.5 258,62.4 260.8,64.5 301.3,45.8 303.7,48 306.1,50.3 309.2,53.4 312.2,56.6 315.1,60 317.9,63.3 320.3,66.4 322.6,69.4 
		298.4,106.5 299.1,107.7 299.8,108.9 300.5,110.2 301.8,112.7 303.1,115.3 304.4,117.9 305.6,120.5 306.8,123.2 307.9,125.8 
		308.9,128.6 309.9,131.3 295.5,131.3 294,127.8 292.5,124.2 290.8,120.8 289,117.3 287,113.8 285,110.4 282.8,107 280.5,103.7 
		278.2,100.4 275.7,97.3 273.1,94.2 270.5,91.2 267.8,88.3 265.1,85.5 262.3,82.8 259.5,80.3 258.6,79.5 257.8,78.9 255.8,77.3 
		253.7,75.7 251.6,74.1 249.5,72.6 247.3,71.1 245.1,69.7 242.8,68.3 240.6,67 238.3,65.7 236,64.5 233.6,63.3 231.2,62.1 228.8,61 
		226.3,60 223.9,59 221.4,58.1 218.9,57.2 216.3,56.3 213.8,55.6 211.2,54.8 208.5,54.1 205.9,53.5 203.2,53 200.6,52.5 197.9,52 
		195.2,51.6 192.4,51.3 189.7,51 186.9,50.8 184.1,50.6 181.3,50.5 178.5,50.5 175.3,50.5 172.1,50.7 168.9,50.9 165.7,51.2 
		162.6,51.5 159.5,51.9 156.4,52.4 153.4,53 150.4,53.7 147.3,54.4 144.4,55.2 141.4,56.1 138.5,57 135.6,58.1 132.8,59.1 130,60.3 
		127.2,61.5 124.4,62.8 121.7,64.1 119.1,65.5 116.4,67 113.8,68.5 111.3,70.1 108.8,71.7 106.3,73.4 103.9,75.2 101.5,77 
		99.2,78.9 96.9,80.8 94.6,82.8 92.4,84.8 90.3,86.9 88.2,89 86.1,91.2 84.2,93.5 82.2,95.8 80.3,98.1 78.5,100.4 76.7,102.8 
		75,105.3 73.4,107.8 71.7,110.4 70.2,112.9 68.7,115.6 67.3,118.2 66,120.9 64.7,123.7 63.4,126.4 62.3,129.3 61.2,132.1 60.2,135 
		59.2,137.9 58.3,140.8 57.5,143.8 56.8,146.8 56.1,149.8 55.5,152.8 55,155.9 54.5,159 54.1,162.1 53.9,165.3 53.6,168.5 
		53.5,171.7 53.4,174.9 53.5,179.1 53.7,183.3 54.1,187.5 54.6,191.7 55.2,195.9 56,200.1 57,204.3 58.1,208.6 59.3,212.6 
		60.6,216.5 62,220.4 63.5,224.1 65.1,227.9 66.8,231.5 68.6,235.1 70.6,238.6 72.7,242.1 74.8,245.5 77.1,248.8 79.5,252.1 
		82.1,255.3 84.8,258.4 87.6,261.5 90.5,264.5 72.4,264.5 70.7,262.4 69,260.2 67.4,258.1 65.9,255.9 64.3,253.7 62.9,251.4 
		61.4,249.2 60,246.9 58.7,244.5 57.4,242.1 56.1,239.8 54.9,237.3 53.7,234.9 52.6,232.4 51.6,229.9 50.5,227.4 49.4,224.7 
		48.4,222 47.4,219.2 46.5,216.5 2.8,208.3 2.8,208.3 2.8,208.2 2.1,203.9 1.4,199.6 0.9,195.3 0.5,190.9 0.2,186.5 0,182.1 
		0,175.6 41.4,159.2 41.7,157.4 42.2,154.3 42.7,151.3 43.3,148.2 44,145.2 44.7,142.2 45.5,139.3 46.4,136.3 47.3,133.5 
		17.2,101.5 18.3,99.1 19.5,96.8 21.5,93 23.6,89.2 25.8,85.5 28.1,81.9 30.5,78.3 32.9,74.8 34.4,72.8 77.1,83.2 77.7,82.6 
		78.3,82 78.3,82.1 80.6,79.8 82.8,77.6 85.2,75.4 87.5,73.3 87.9,73 90.2,71 92.6,69.1 94.9,67.2 97.4,65.4 97.4,65.3 97.4,65.3 
		92.4,21.7 94.7,20.4 97.1,19.1 100.9,17.2 104.9,15.4 107.5,14.2 110.2,13 112.8,11.9 116.9,10.3 120.9,8.9 122.2,8.4 123.5,8.1 
		151.5,41.3 154.6,40.7 157.7,40.2 160.9,39.7 164,39.3 167.2,39 170.4,38.8 173.6,38.6 176.9,38.5 179.4,38.5 201.5,0 203.5,0.2 
		205.5,0.5 209.8,1.1 214,1.8 218.2,2.7 222.4,3.6 226.6,4.6 230.7,5.8 232.4,6.3 	"/>
	<polygon class="st0" points="178.6,111.2 178.7,111.4 178.9,111.7 179.1,112.1 179.4,112.5 179.7,113 180,113.6 180.8,114.7 
		181.6,115.9 182,116.5 182.3,117 182.6,117.5 182.9,117.9 183.1,118.2 183.3,118.4 200.6,110.1 200.8,110 201.1,109.8 201.5,109.7 
		201.9,109.5 202.7,109 203.6,108.6 204.6,108.2 205.4,107.8 205.8,107.6 206.1,107.5 206.4,107.4 206.6,107.4 206.8,107.7 207,108 
		207.4,108.5 207.7,109 208.1,109.5 208.6,110 209.6,111.2 210.5,112.3 211,112.9 211.4,113.4 211.7,113.8 212,114.2 212.2,114.5 
		212.3,114.8 211.7,115.3 211,115.9 210.3,116.4 209.6,116.8 208.9,117.4 208.1,117.9 207.4,118.4 206.7,118.9 200.9,123.1 
		201,123.3 201.2,123.6 201.4,123.9 201.7,124.3 202.3,125.2 203,126.1 203.7,127.1 204.4,128 204.7,128.4 205,128.8 205.3,129.2 
		205.5,129.5 205.9,130.1 206.3,130.7 206.8,131.2 207.2,131.7 207.5,131.5 207.8,131.3 208.6,130.7 209.3,130.1 209.6,129.8 
		209.9,129.6 210.2,129.4 210.5,129.1 211,128.7 211.5,128.3 212.1,127.8 212.8,127.3 214.1,126.2 215.5,125.1 216.1,124.6 
		216.7,124.2 217.2,123.8 217.6,123.5 217.9,123.3 218,123.2 218.1,123.2 218.2,123.3 218.3,123.5 218.5,123.7 218.7,124.1 
		218.9,124.5 219.3,124.9 219.6,125.5 220,126 220.4,126.7 220.8,127.3 221.8,128.7 222.7,130.2 223.8,131.8 224.8,133.4 
		225.8,134.9 226.7,136.3 227.1,137 227.5,137.6 227.9,138.2 228.2,138.8 228.6,139.3 228.8,139.7 229,140 229.2,140.3 229.3,140.5 
		229.4,140.7 229.1,140.9 228.8,141.1 228.2,141.5 227.4,141.9 226.7,142.3 218.4,147.4 215.5,149.1 212.8,150.8 212.4,151.1 
		212.1,151.3 211.8,151.4 211.6,151.6 211.2,151.8 210.9,152 210.6,152 210.4,152 210.1,151.9 209.6,151.8 199.5,148.5 197.8,148 
		197,147.7 196.1,147.4 195.7,147.3 195.5,147.1 195.3,147 195.2,146.7 195.1,146.4 194.9,145.9 194.9,145.6 194.8,145.3 
		194.7,144.9 194.6,144.5 193.7,140.9 192.7,137.3 191.7,133.7 190.9,130.1 183.6,131.8 185.2,138.2 184.9,138.2 184.5,138.2 
		183.9,138.2 183.3,138.1 182.5,138.1 181.6,138 180.7,137.9 179.7,137.9 178.6,137.8 177.4,137.7 175.1,137.5 172.5,137.3 
		170,137.1 167.4,136.9 165,136.7 163.8,136.7 162.7,136.5 161.7,136.5 160.7,136.4 159.8,136.3 159,136.2 158.3,136.1 157.6,136.1 
		157.2,136.1 156.8,136 156.5,136 156.4,135.9 156.2,135.7 156,135.4 155.8,135 155.7,134.6 155.4,133.7 155.2,133.3 155.1,133 
		155,132.6 154.8,132.1 154.6,131.6 154.4,131 153.9,129.6 153.3,128.1 152.8,126.7 152.6,126 152.4,125.4 152.2,124.9 152,124.4 
		151.9,124.1 151.9,123.9 164.3,121.7 164.3,121.4 164.3,121.1 164.3,120.6 164.3,120.1 164.2,119.6 164.2,119 164,117.8 
		163.8,116.5 163.7,116 163.6,115.4 163.6,115 163.5,114.6 163.4,114.3 163.3,114.1 150.4,115 150.4,108.3 173.5,101.2 172.2,99.4 
		170.8,97.6 170.6,97.3 170.2,96.8 169.8,96.3 169.4,95.8 169,95.2 168.6,94.7 168.3,94.3 168.2,94.1 168.2,93.9 179.4,86.6 
		179.3,86.3 179.1,86.1 178.9,85.8 178.6,85.4 178.1,84.6 177.4,83.8 176.8,82.9 176.1,82.1 175.6,81.4 175.3,81.1 175.1,80.8 
		174.4,79.8 173.6,78.8 162.5,84.1 157.5,75.5 157.6,75.4 157.8,75.3 158,75.1 158.3,75 158.6,74.8 158.9,74.6 159.7,74.2 
		160.6,73.6 161.6,73 163.6,71.8 164.7,71.2 165.7,70.6 166.7,70.1 167.5,69.6 168.3,69.2 168.6,69 168.9,68.9 169.1,68.7 
		169.3,68.6 169.4,68.6 169.5,68.5 169.7,68.5 170,68.5 170.4,68.5 171,68.5 171.8,68.5 172.6,68.5 173.5,68.5 174.5,68.5 
		175.6,68.5 176.8,68.5 178,68.5 179.3,68.5 182.1,68.5 184.8,68.5 187.7,68.5 190.4,68.5 191.8,68.5 193,68.5 194.3,68.5 
		195.4,68.5 196.6,68.5 197.5,68.5 198.5,68.5 199.3,68.5 200,68.5 200.6,68.5 201,68.5 201.3,68.5 201.3,70.1 201.4,71.8 
		201.4,73.5 201.4,75.2 201.4,78.8 201.4,82.5 201.3,86.2 201.3,89.9 201.3,93.5 201.3,95.2 201.3,96.9 201.3,97.2 201.3,97.5 
		201.3,97.9 201.3,98.2 201.2,98.4 201,98.6 200.7,98.8 200.5,99 200.2,99.1 199.9,99.3 199.6,99.5 199.4,99.6 199.1,99.8 
		198.7,99.9 198.3,100.2 197.7,100.5 197.1,100.9 196.5,101.2 195.8,101.6 195,102 194.2,102.5 192.5,103.5 190.7,104.5 
		188.9,105.5 187.1,106.6 185.3,107.5 183.7,108.5 182.9,108.9 182.1,109.3 181.4,109.7 180.8,110.1 180.3,110.4 179.8,110.6 
		179.3,110.9 179,111 178.8,111.1 	"/>
	<polygon class="st1" points="110.7,151.2 121,149.8 118.5,136.8 118.7,136.7 118.9,136.7 119.3,136.6 119.8,136.5 120.3,136.3 
		121,136.2 121.7,136 122.5,135.9 123.4,135.7 124.3,135.5 125.3,135.3 126.3,135.1 128.4,134.7 130.7,134.2 132.9,133.8 
		135.1,133.4 137.2,133 138.2,132.8 139.1,132.6 140,132.4 140.8,132.3 141.5,132.2 142.2,132 142.8,131.9 143.3,131.8 143.6,131.8 
		143.9,131.7 147.8,142.2 148,142.4 148.3,142.6 148.6,142.7 148.9,142.8 149.7,143 150,143.1 150.3,143.2 151.7,143.6 153.2,144 
		153.4,144.1 153.8,144.2 154.5,144.4 155.3,144.6 156.1,144.8 156.9,145 157.7,145.3 158.3,145.6 158.5,145.7 158.7,145.8 
		148.8,158.1 149.1,158.3 149.6,158.7 150.1,159 150.6,159.3 151.7,159.9 152.1,160.2 152.5,160.5 153.1,161 153,161.1 152.8,161.5 
		152.5,161.9 152.2,162.3 151.9,162.9 151.5,163.5 150.6,164.8 149.8,166 149.4,166.6 149,167.1 148.7,167.6 148.4,167.9 
		148.2,168.1 148.1,168.2 148,168.3 147.8,168.4 147.3,168.6 146.7,168.8 146,169.1 145.3,169.3 144.6,169.6 144,169.8 143.8,169.9 
		143.6,169.9 143.2,170.1 142.9,170.2 142.2,170.4 141.7,170.6 141.1,170.7 140.6,170.8 140,170.8 139.2,170.9 138.8,170.9 
		138.3,170.9 138.8,161.9 138.5,161.9 138.2,162 137.7,162 137.3,162 136.2,162.1 135.2,162.2 134.1,162.3 133.1,162.4 132.7,162.5 
		132.3,162.5 132,162.6 131.8,162.7 131.3,171 130,171.1 129.8,171.1 129.6,171 129.3,171 129,170.9 128.3,170.6 127.4,170.3 
		126.5,169.9 125.4,169.5 124.3,169.1 123.2,168.6 120.9,167.6 119.8,167.1 118.7,166.7 117.8,166.3 116.9,165.9 116.2,165.7 
		115.9,165.5 115.7,165.5 105.3,174 104.9,174.4 104.5,174.7 104.2,175 103.9,175.2 103.7,175.4 103.5,175.6 103.3,175.7 103,175.8 
		102.7,175.8 102.4,175.9 101.9,175.9 101.4,175.9 100.7,175.9 99.9,175.8 99,175.8 98.4,175.8 97.8,175.8 94.8,175.8 91.6,175.9 
		85.3,176 82.2,176 79.1,176 76,176 73.1,176 73.1,163.6 85.9,163.6 87.4,151.3 73.1,151.3 72.3,146.8 72.2,146.2 72,145.6 
		71.8,144.4 71.7,143.8 71.7,143.2 71.7,142.7 71.9,142.3 72.1,142 72.3,141.7 72.5,141.2 72.8,140.8 73.1,140.2 73.4,139.5 
		73.8,138.9 74.2,138.1 74.6,137.4 75.1,136.5 76.1,134.8 77.1,133 78.1,131.2 79.1,129.4 80.1,127.6 80.6,126.8 81,126 81.5,125.3 
		81.9,124.6 82.2,123.9 82.6,123.3 82.9,122.8 83.2,122.4 83.4,122 83.6,121.7 83.7,121.5 83.8,121.4 84.2,121.7 84.8,122.1 
		85.8,122.8 86.8,123.6 87.8,124.4 106.2,137.8 106.8,138.2 107.3,138.6 107.5,138.8 107.7,139.1 107.8,139.4 107.9,139.8 	"/>
	<polygon class="st0" points="261,99.8 245.3,101.1 245.3,108.4 271.2,108.3 273.5,131.6 262.3,131.1 262.1,121.5 252.5,121.7 
		252.9,131.6 232.9,132.8 214.3,106.8 214,106.3 213.6,105.8 212.9,104.8 212.2,103.8 211.9,103.3 211.6,102.8 224,101.3 
		224.1,101.2 223.1,94.2 223,94.1 222.9,94.1 222.7,94.1 222.5,94 222.3,94 222,93.9 221.2,93.9 220.3,93.8 219.4,93.7 218.3,93.6 
		217.2,93.5 215,93.3 214,93.3 213,93.2 212.2,93.1 211.5,93.1 211.2,93.1 210.9,93 210.7,93 210.6,93 210.6,74.1 210.7,74.1 
		210.8,74.1 210.9,74.2 211.1,74.2 211.7,74.4 212.3,74.6 213.1,74.8 214.1,75.1 215.1,75.5 216.3,75.9 217.5,76.3 218.9,76.8 
		220.3,77.2 221.8,77.8 223.3,78.3 224.9,78.8 228.2,80 231.6,81.2 234.9,82.3 236.5,82.9 238.1,83.4 239.6,83.9 241.1,84.5 
		242.5,85 243.8,85.4 245.1,85.8 246.2,86.2 247.2,86.6 248.1,86.9 248.9,87.2 249.6,87.4 250.3,87.7 250.9,88.1 251.5,88.6 
		252.1,89.2 252.6,89.9 253.2,90.6 253.8,91.3 254.4,92 254.5,92.1 254.6,92.2 254.9,92.6 255.2,93 255.7,93.5 256.2,94.1 
		256.7,94.7 257.9,96 259,97.3 259.5,97.9 260,98.5 260.4,99 260.7,99.4 260.9,99.6 261,99.7 	"/>
	<polygon class="st0" points="191.1,151.9 191,152.1 190.9,152.2 190.6,152.5 190.1,152.9 189.6,153.4 189,154 188.3,154.6 
		186.9,155.9 185.4,157.2 184.6,157.8 184,158.4 183.3,158.9 182.8,159.4 182.4,159.8 182.1,160.2 182.3,160.4 182.5,160.6 
		183.1,161 183.7,161.5 184,161.7 184.3,161.9 184.5,162.1 184.9,162.4 185.3,162.7 185.8,163 186.9,163.9 188,164.7 189.1,165.5 
		189.6,165.9 190,166.2 190.5,166.5 190.8,166.7 191.1,166.9 191.3,167 191.4,166.8 191.5,166.6 191.8,166.3 192,165.9 192.6,165.2 
		193.3,164.4 194,163.5 194.7,162.7 195,162.3 195.2,162 195.5,161.7 195.7,161.4 196.8,160.1 197.9,158.7 199.1,157.2 199.7,156.5 
		200.2,155.8 200.6,155.9 201.1,156.1 201.7,156.4 202.4,156.6 203.2,157 204.1,157.3 205.9,158.1 207.8,158.9 208.6,159.3 
		209.4,159.6 210.1,160 210.7,160.3 211.2,160.6 211.6,160.8 212.7,161.6 213.8,162.5 216.4,164.3 217.6,165.3 218.9,166.1 220,167 
		221,167.8 221,181.5 220.6,181.8 220,182.1 219.4,182.5 218.7,182.9 218,183.3 217.2,183.7 215.6,184.7 214,185.6 212.5,186.5 
		211.7,186.9 211,187.3 210.4,187.7 209.9,188 209.4,188.3 208.9,188.5 208.5,188.7 208.1,188.9 207.4,189.1 206.7,189.3 
		205.9,189.4 205.5,189.4 205.1,189.4 204.5,189.4 204,189.5 203.3,189.6 202.6,189.6 200.6,189.8 198.5,190 196.4,190.2 
		194.3,190.3 194.3,178.3 183.5,178.7 183.5,190.3 160.7,190.3 158,183.5 158.1,183.5 158.4,183.4 158.9,183.2 159.6,183 
		160.4,182.7 161.3,182.4 162.3,182.1 164.3,181.4 165.3,181 166.2,180.7 167.1,180.4 167.9,180.1 168.6,179.8 169.2,179.6 
		169.4,179.5 169.6,179.4 169.7,179.4 169.8,179.3 167.7,174.1 156,178.2 155.9,178.1 155.8,177.8 155.6,177.4 155.4,177 
		155.2,176.5 154.9,175.9 154.5,174.7 154,173.5 153.8,172.9 153.6,172.4 153.4,171.9 153.3,171.5 153.2,171.2 153.1,171 
		153.2,170.9 153.2,170.8 153.4,170.6 153.6,170.4 153.8,170.1 154.1,169.8 154.3,169.5 154.7,169.1 155.4,168.2 156.2,167.3 
		157.2,166.3 158.1,165.3 159,164.2 159.9,163.2 160.7,162.2 161.5,161.3 161.8,160.9 162.1,160.5 162.4,160.2 162.7,159.9 
		162.9,159.6 163,159.4 163.1,159.2 163.2,159.1 158,156.1 165.4,147 185.2,147 185.4,147.1 185.7,147.2 186,147.4 186.4,147.7 
		186.8,148 187.2,148.4 188.1,149.2 189,150 189.9,150.8 190.2,151.2 190.6,151.5 190.8,151.7 	"/>
	<polygon class="st0" points="161.5,96.4 161.3,96.5 161,96.7 160.5,96.9 160,97.1 159.4,97.3 158.7,97.5 157.2,98.1 155.6,98.6 
		154.9,98.8 154.2,99.1 153.6,99.3 153,99.4 152.6,99.6 152.3,99.7 147.6,101.3 145.3,102.1 143,102.9 143.5,124.7 134.3,126.7 
		133.9,126 133.4,125.2 132.9,124.5 132.4,123.8 123.1,109.8 122.9,109.6 122.8,109.4 122.6,109.1 122.5,108.9 122.5,108.7 
		122.4,108.5 122.4,108.1 122.4,100.9 134.3,100.9 134.4,90.6 122.4,89.6 122.4,74 140.1,71.6 140.8,71.5 141.6,71.4 142.4,71.2 
		143.3,71.1 144.2,71 145,70.9 145.7,70.8 146,70.8 146.3,70.8 	"/>
	<polygon class="st0" points="147.5,178.4 147.7,179.3 147.9,180.1 148.4,181.8 148.9,183.6 149.4,185.3 149.5,185.6 149.6,186 
		149.7,186.3 149.8,186.8 150.2,187.8 150.5,188.9 150.7,189.9 151,190.9 151.1,191.4 151.2,191.8 151.2,192.1 151.2,192.4 
		148.1,195.4 147.8,195.3 147.4,195.1 147,194.8 146.6,194.4 146.1,194.1 145.6,193.7 144.5,192.8 143.4,192 142.9,191.6 
		142.4,191.3 142,190.9 141.6,190.7 141.2,190.5 141,190.4 140.8,190.6 140.7,190.9 140.4,191.1 140.2,191.5 139.6,192.2 
		138.9,192.9 138.3,193.6 137.7,194.3 137.5,194.6 137.3,194.8 137.1,195 137,195.2 138.6,196.4 140.1,197.8 140.4,198 140.8,198.4 
		141.7,199.1 142.2,199.5 142.6,199.9 142.9,200.3 143,200.6 139.4,204.2 139.1,204.2 138.7,204.1 138.2,204 137.8,203.9 
		137.2,203.8 136.7,203.7 135.5,203.3 134.2,203 133.1,202.6 132.6,202.5 132.1,202.4 131.7,202.2 131.4,202.1 127.5,201.1 
		123.5,200 121.6,199.4 119.6,198.9 115.7,197.8 114.7,197.5 113.7,197.2 111.6,196.6 110.6,196.3 109.6,196 108.6,195.7 
		107.7,195.6 109.6,179.3 110.6,178.9 111.5,178.5 113.4,177.5 115.3,176.6 117.2,175.7 117.6,175.6 118.1,175.6 118.7,175.7 
		119.2,175.9 120.4,176.3 120.9,176.5 121.3,176.6 121.9,176.9 122.5,177.1 123.6,177.4 124.6,177.8 125.5,178 126.2,178.2 
		126.9,178.3 127.6,178.4 128.3,178.5 129,178.5 129.7,178.5 130.5,178.5 131.4,178.5 132.4,178.4 133.5,178.4 134.2,178.4 
		134.8,178.4 135.6,178.4 136.3,178.4 137.6,178.4 139,178.4 142,178.3 143.5,178.3 144.9,178.3 146.3,178.3 	"/>
	<polygon class="st0" points="125.9,128.1 117.4,130.6 112.4,122.8 105,126.7 104.7,126.5 104.4,126.3 103.8,125.7 103.2,125.2 
		102.6,124.7 102,124.1 101.4,123.6 100.7,123.1 100.1,122.6 98.9,121.6 97.8,120.6 86,110.7 85.9,110.6 85.9,110.5 85.9,110.5 
		85.8,110.4 85.8,110.4 85.7,110.3 86,109.9 86.4,109.5 87.1,108.7 87.5,108.2 88,107.7 89,106.6 90.1,105.4 91.2,104.2 92.4,103 
		93.4,101.8 94.4,100.7 94.9,100.1 95.3,99.6 95.7,99.2 96,98.9 96.4,98.5 96.8,98.1 106.4,87.5 106.7,87.2 107,86.8 107.2,86.5 
		107.6,86.2 107.9,86.1 108.1,86 108.3,86.1 108.6,86.1 108.8,86.2 109.1,86.4 109.4,86.6 112.6,89.3 113,89.7 113.4,90 113.8,90.3 
		114,90.5 114.3,90.7 114.4,90.8 114.7,91.2 114.7,91.4 114.8,91.7 114.8,92 114.8,92.3 114.8,92.8 114.7,93.3 114.7,93.9 
		114.6,94.7 114.4,98.3 114.1,101.9 114.1,102.3 114,102.7 113.9,103.5 113.8,104.6 113.7,105.6 113.7,106.6 113.7,107.6 113.7,108 
		113.8,108.3 113.9,108.7 114,108.9 114.2,109.2 114.4,109.5 114.6,109.9 114.9,110.4 115.2,110.9 115.6,111.4 115.9,112 
		116.4,112.6 117.2,114 118.2,115.5 119.1,117.1 120.2,118.7 121.2,120.2 122.1,121.8 123,123.2 123.8,124.6 124.2,125.2 
		124.6,125.8 124.9,126.3 125.2,126.8 125.5,127.2 125.7,127.6 125.8,127.9 	"/>
	<polygon class="st0" points="215.7,156 215.8,155.8 216.1,155.6 216.4,155.4 216.8,155.2 217.6,154.7 218.6,154.2 219.6,153.7 
		220.6,153.2 221,153 221.4,152.8 221.7,152.6 222,152.4 222.2,152.3 222.4,152.2 222.6,152.1 222.9,151.9 223.3,151.7 223.7,151.5 
		224.5,151.1 225.5,150.5 226.6,150 228.8,148.7 229.9,148.1 230.9,147.5 231.9,147 232.8,146.5 233.6,146.1 233.9,145.9 
		234.2,145.7 234.4,145.6 234.6,145.4 234.7,145.4 234.7,145.3 234.9,145.1 235,144.8 235.2,144.5 235.4,144.1 235.6,143.6 
		235.9,143.1 236.4,142 236.8,141 237.3,140 237.5,139.6 237.7,139.2 237.9,138.9 238,138.6 271.9,138.6 271.8,138.8 271.7,139.1 
		271.5,139.5 271.3,139.9 271,140.3 270.7,140.9 270,141.9 269.3,143 268.7,144.1 268.4,144.5 268.2,144.9 268,145.2 267.8,145.5 
		265.7,149 263.6,152.4 263.4,152.8 263.2,153.1 263,153.5 262.7,153.9 262.5,154.1 262.2,154.3 261.8,154.5 261.6,154.6 
		261.3,154.7 260.9,154.7 260.5,154.9 252.9,156.9 245.2,158.9 237.5,161 229.8,163.1 229.4,163.2 229,163.3 228.7,163.4 
		228.4,163.5 228,163.6 227.6,163.6 227.4,163.5 227,163.3 226.8,163.2 226.6,163 226.3,162.8 225.9,162.6 224.2,161.5 222.4,160.4 
		217.3,157.2 216.9,156.9 216.5,156.6 	"/>
	<polygon class="st0" points="148.8,225.6 135.6,218.5 146.9,207.3 148,206.3 148.9,205.4 150.8,203.5 152.6,201.7 153.5,200.7 
		154.5,199.8 155,199.4 155.3,199.1 155.6,198.8 155.9,198.6 156.1,198.4 156.2,198.2 156.6,198.1 156.8,198 157.1,198 157.4,198 
		157.7,198 158.2,198 158.7,198 159.4,198 160.2,198 167.7,198 175.2,198 168.8,204.9 168.2,205.5 167.6,206.1 166.4,207.4 
		165,208.8 163.7,210.2 162.3,211.5 161.1,212.9 160.5,213.5 159.9,214.1 159.4,214.7 158.9,215.2 158.8,215.3 158.6,215.5 
		158.4,215.7 158.2,216 157.6,216.6 157,217.3 156.2,218.1 155.4,218.9 153.7,220.7 152.8,221.6 152,222.4 151.3,223.2 150.5,224 
		149.9,224.6 149.6,224.8 149.4,225.1 149.2,225.3 149,225.4 148.9,225.5 	"/>
	<polygon class="st0" points="145.6,231 145.4,231.1 145.2,231.2 144.7,231.3 144.2,231.5 143.6,231.7 143,231.9 141.5,232.3 
		140,232.7 139.3,232.9 138.6,233.1 138,233.3 137.5,233.4 137.1,233.5 136.9,233.6 136.4,233.6 135.9,233.5 135.4,233.4 
		134.9,233.1 133.9,232.5 133.4,232.2 133,232 115.2,221.4 117,214.5 117.1,214.6 117.3,214.6 117.6,214.8 118,215 118.5,215.3 
		119.1,215.6 119.7,215.9 120.3,216.3 121.1,216.7 121.8,217.2 122.7,217.6 123.5,218.1 125.3,219.1 127.2,220.2 129.1,221.3 
		130.9,222.4 132.7,223.4 133.5,223.9 134.3,224.4 135.1,224.8 135.8,225.2 136.4,225.6 137,225.9 137.5,226.2 137.9,226.5 
		138.3,226.7 138.5,226.8 140.3,227.9 142.1,228.9 142.5,229.1 142.9,229.3 143.4,229.6 144,229.9 144.5,230.2 145,230.5 
		145.3,230.8 	"/>
	<polygon class="st0" points="134.1,209.6 133.8,210.1 133.5,210.4 132.8,211.2 132.6,211.4 132.4,211.6 132,212.2 131.4,212.8 
		130.9,213.4 130.3,214.1 129.8,214.7 129.3,215.1 129.2,215.3 129,215.4 118.7,210.1 112.9,204 111.8,203.1 111.3,202.6 
		111.2,202.3 111,202 111.6,202.2 112.3,202.4 113.8,202.8 115.4,203.4 116.1,203.6 116.7,203.8 119.7,204.8 122.6,205.7 
		133.7,209.4 133.9,209.5 134,209.5 	"/>
	<path class="st0" d="M183.8,224.6v-25.3H196l0.9,0l0.9,0.1l0.8,0.1l0.8,0.2l0.7,0.2l0.7,0.3l0.6,0.3l0.5,0.4l0.5,0.4l0.4,0.5
		l0.3,0.5l0.3,0.6l0.2,0.6l0.2,0.7l0.1,0.7l0,0.8l-0.1,1l-0.2,0.9l-0.3,0.8l-0.4,0.7l-0.5,0.7l-0.7,0.6l-0.8,0.5l-0.9,0.4l0.6,0.1
		l0.6,0.2l0.5,0.2l0.5,0.2l0.5,0.3l0.4,0.3l0.3,0.3l0.3,0.4l0.3,0.4l0.3,0.4l0.2,0.5l0.2,0.5l0.1,0.5l0.1,0.5l0.1,0.6l0,0.6l0,0.9
		l-0.1,0.9l-0.2,0.8l-0.2,0.7l-0.3,0.7l-0.4,0.6l-0.5,0.5l-0.5,0.5l-0.6,0.4l-0.7,0.4l-0.7,0.3l-0.8,0.3l-0.9,0.2l-1,0.1l-1,0.1
		l-1.1,0H183.8z M183.8,224.6 M186.4,210.2h8.9l0.8,0l0.7,0l0.7-0.1l0.6-0.1l0.5-0.1l0.5-0.2l0.5-0.2l0.4-0.2l0.3-0.3l0.3-0.3
		l0.3-0.4l0.2-0.4l0.1-0.5l0.1-0.5l0.1-0.5l0-0.6l0-0.6l-0.1-0.5l-0.1-0.5l-0.1-0.4l-0.2-0.4l-0.2-0.3l-0.3-0.3l-0.3-0.3l-0.4-0.2
		l-0.4-0.2l-0.5-0.2l-0.5-0.1l-0.6-0.1l-0.7-0.1l-0.7,0l-0.7,0h-9.2V210.2z M186.4,210.2 M186.4,222.1h9.4l0.8,0l0.8,0l0.7-0.1
		l0.7-0.1l0.6-0.1l0.5-0.2l0.5-0.2l0.4-0.3l0.4-0.3l0.3-0.3l0.3-0.4l0.2-0.4l0.2-0.5l0.1-0.5l0.1-0.5l0-0.6l0-0.6l-0.1-0.6l-0.1-0.6
		l-0.2-0.5l-0.2-0.5l-0.3-0.4l-0.3-0.4l-0.3-0.3l-0.4-0.3l-0.5-0.3l-0.5-0.2l-0.5-0.2l-0.6-0.1l-0.7-0.1l-0.7-0.1l-0.7,0h-10V222.1z
		 M186.4,222.1 M209.7,224.6v-25.3h19.4v2.4h-16.9v8.8h15.6v2.4h-15.6v9.3h16.9v2.4H209.7z M209.7,224.6 M242,224.6v-10.9
		l-10.9-14.3h3.2l8.9,12.3l9-12.3h3.1l-10.9,14.3v10.9H242z M242,224.6 M259,224.6v-25.3h2.5v25.3H259z M259,224.6 M267.6,224.6
		v-25.3h2.5v13.8l15.6-13.8h3.5l-11.9,10.6l11.9,14.7h-3.2l-10.6-13.1l-5.4,4.7v8.4H267.6z M267.6,224.6 M312.2,224.6v-10.9
		l-10.9-14.3h3.2l8.9,12.3l9-12.3h3.1l-10.9,14.3v10.9H312.2z M312.2,224.6 M329,199.3h2.6v15.5l0,1l0.1,0.9l0.1,0.9l0.2,0.8
		l0.3,0.7l0.4,0.7l0.4,0.6l0.5,0.5l0.5,0.5l0.6,0.4l0.7,0.3l0.8,0.3l0.9,0.2l0.9,0.1l1,0.1l1,0l1,0l1-0.1l0.9-0.1l0.9-0.2l0.8-0.3
		l0.7-0.3l0.6-0.4l0.6-0.5l0.5-0.5l0.4-0.6l0.3-0.7l0.3-0.7l0.2-0.8l0.2-0.9l0.1-0.9l0-1v-15.5h2.6v16.2l-0.1,1.1l-0.1,1.1l-0.2,1
		l-0.3,0.9l-0.4,0.9l-0.5,0.8l-0.6,0.7l-0.7,0.7l-0.7,0.6l-0.9,0.5l-0.9,0.4l-1,0.3l-1.1,0.3l-1.1,0.2l-1.2,0.1l-1.3,0l-1.3,0
		l-1.2-0.1l-1.2-0.2l-1-0.3l-1-0.3l-0.9-0.4l-0.8-0.5l-0.7-0.6l-0.7-0.7l-0.6-0.7l-0.5-0.8l-0.4-0.9l-0.3-1l-0.2-1l-0.1-1.1
		l-0.1-1.2V199.3z M329,199.3 M359.5,211.8h7.3l1,0l0.9-0.1l0.8-0.1l0.7-0.1l0.7-0.2l0.6-0.2l0.5-0.2l0.4-0.3l0.4-0.3l0.3-0.4
		l0.3-0.4l0.2-0.5l0.1-0.5l0.1-0.6l0.1-0.6l0-0.7l0-0.7l-0.1-0.6l-0.1-0.6l-0.1-0.5l-0.2-0.5l-0.3-0.4l-0.3-0.3l-0.4-0.3l-0.4-0.3
		l-0.5-0.3l-0.6-0.2l-0.7-0.1l-0.7-0.1l-0.8-0.1l-0.9,0l-1,0h-7.3V211.8z M359.5,211.8 M357,224.6v-25.3h10.3l1.1,0l1.1,0.1l1,0.1
		l0.9,0.2l0.8,0.3l0.8,0.3l0.7,0.4l0.6,0.4l0.5,0.5l0.5,0.6l0.4,0.6l0.3,0.7l0.3,0.7l0.2,0.8l0.1,0.9l0,0.9l0,0.9l-0.1,0.8l-0.2,0.8
		l-0.3,0.7l-0.3,0.7l-0.4,0.6l-0.5,0.6l-0.5,0.5l-0.6,0.4l-0.7,0.4l-0.8,0.3l-0.8,0.3l-0.9,0.2l-1,0.1l-1.1,0.1l-1.1,0h-7.8v10.4
		H357z M357,224.6 M381,224.6v-25.3h19.4v2.4h-16.9v8.8h15.6v2.4h-15.6v9.3h16.9v2.4H381z M381,224.6 M405,224.6v-25.3h2.5v13.8
		l15.6-13.8h3.5l-11.9,10.6l11.9,14.7h-3.2l-10.5-13.1l-5.3,4.7v8.4H405z M405,224.6 M449.6,224.6v-10.9l-10.9-14.3h3.2l8.9,12.3
		l9-12.3h3.1l-10.9,14.3v10.9H449.6z M449.6,224.6 M490.5,212l-0.1,1.5l-0.2,1.4l-0.3,1.4l-0.4,1.2l-0.5,1.2l-0.6,1.1l-0.7,1
		l-0.8,0.9l-0.9,0.8l-1,0.7l-1.1,0.6l-1.2,0.5l-1.2,0.4l-1.3,0.3l-1.4,0.2l-1.5,0.1l-1.5-0.1l-1.4-0.2l-1.3-0.3l-1.2-0.4l-1.2-0.5
		l-1.1-0.6l-1-0.7l-0.9-0.8l-0.8-0.9l-0.7-1l-0.6-1.1l-0.5-1.2l-0.4-1.2l-0.3-1.4l-0.2-1.4l-0.1-1.5l0.1-1.5l0.2-1.4l0.3-1.4
		l0.4-1.2l0.5-1.2l0.6-1.1l0.7-1l0.8-0.9l0.9-0.8l1-0.7l1.1-0.6l1.2-0.5l1.2-0.4l1.3-0.3l1.4-0.2l1.5-0.1l1.5,0.1l1.4,0.2l1.3,0.3
		l1.2,0.4l1.2,0.5l1.1,0.6l1,0.7l0.9,0.8l0.8,0.9l0.7,1l0.6,1.1l0.5,1.2l0.4,1.2l0.3,1.4l0.2,1.4L490.5,212z M490.5,212
		 M477.2,222.8l1.2-0.1l1.1-0.1l1.1-0.2l1-0.3l0.9-0.4l0.9-0.5l0.8-0.6l0.7-0.7l0.7-0.8l0.6-0.8l0.5-0.9l0.4-1l0.3-1l0.2-1.1
		l0.1-1.2l0.1-1.2l-0.1-1.2l-0.1-1.2l-0.2-1.1l-0.3-1l-0.4-1l-0.5-0.9l-0.6-0.8L485,204l-0.7-0.7l-0.8-0.6l-0.9-0.5l-0.9-0.4l-1-0.3
		l-1.1-0.2l-1.1-0.1l-1.2-0.1l-1.2,0.1l-1.2,0.1l-1.1,0.2l-1,0.3l-1,0.4l-0.9,0.5l-0.8,0.6l-0.7,0.7l-0.7,0.8l-0.6,0.8l-0.5,0.9
		l-0.4,1l-0.3,1l-0.2,1.1l-0.1,1.2l-0.1,1.2l0.1,1.2l0.1,1.2l0.2,1.1l0.3,1l0.4,1l0.5,0.9l0.6,0.8l0.7,0.8l0.7,0.7l0.8,0.6l0.9,0.5
		l1,0.4l1,0.3l1.1,0.2l1.2,0.1L477.2,222.8z M477.2,222.8 M495.2,224.6v-25.3h2.5v22.9h15.8v2.4H495.2z M495.2,224.6 M520,224.6
		v-10.9l-10.9-14.3h3.2l8.9,12.3l9-12.3h3.1l-10.9,14.3v10.9H520z"/>
	<path class="st0" d="M195.3,264.5v-27.1h-11.5v-2.7h26v2.7h-11.5v27.1H195.3z M195.3,264.5 M213.4,234.7h3V253l0,1.2l0.1,1.1l0.2,1
		l0.3,0.9l0.3,0.9l0.4,0.8l0.5,0.7l0.6,0.6l0.7,0.5l0.7,0.5l0.8,0.4l0.9,0.3l1,0.3l1.1,0.2l1.2,0.1l1.2,0l1.2,0l1.2-0.1l1.1-0.2
		l1-0.3l0.9-0.3l0.8-0.4l0.7-0.5l0.7-0.5l0.6-0.6l0.5-0.7l0.4-0.8l0.3-0.9l0.3-0.9l0.2-1l0.1-1.1l0-1.2v-18.3h3v19.1l-0.1,1.4
		l-0.1,1.3l-0.3,1.2l-0.3,1.1l-0.5,1l-0.6,1l-0.7,0.8l-0.8,0.8l-0.9,0.7l-1,0.6l-1,0.5l-1.2,0.4l-1.2,0.3l-1.4,0.2l-1.4,0.1
		l-1.5,0.1l-1.5-0.1l-1.4-0.1l-1.4-0.2l-1.2-0.3l-1.2-0.4l-1-0.5l-1-0.6l-0.9-0.7l-0.8-0.8l-0.7-0.9l-0.6-0.9l-0.5-1l-0.4-1.1
		l-0.3-1.2l-0.1-1.3l-0.1-1.4V234.7z M213.4,234.7 M259.9,237.4h-10.6v11.5h10.9l1,0l0.9-0.1l0.9-0.1l0.8-0.1l0.7-0.2l0.7-0.2
		l0.6-0.3l0.5-0.3l0.4-0.4l0.4-0.4l0.3-0.5l0.3-0.5l0.2-0.6l0.1-0.6l0.1-0.7l0-0.7l0-0.7l-0.1-0.7l-0.1-0.6l-0.2-0.6l-0.3-0.5
		l-0.3-0.5l-0.4-0.4l-0.4-0.4l-0.5-0.3l-0.6-0.3l-0.7-0.2l-0.8-0.2l-0.9-0.1l-0.9-0.1l-1-0.1L259.9,237.4z M259.9,237.4
		 M246.4,264.5v-29.8h14.3l1.3,0l1.2,0.1l1.1,0.2l1,0.2l1,0.3l0.9,0.3l0.8,0.4l0.7,0.5l0.6,0.5l0.5,0.6l0.5,0.7l0.4,0.7l0.3,0.8
		l0.2,0.8l0.1,0.9l0,1l0,0.7l-0.1,0.7l-0.1,0.7l-0.1,0.6l-0.2,0.6l-0.2,0.5l-0.3,0.5l-0.3,0.5l-0.3,0.4l-0.4,0.4l-0.4,0.4l-0.5,0.3
		l-0.5,0.3l-0.6,0.3l-0.6,0.3l-0.7,0.2l0.6,0.1l0.5,0.1l0.5,0.2l0.4,0.2l0.4,0.2l0.3,0.2l0.3,0.2l0.3,0.3l0.2,0.3l0.2,0.4l0.2,0.5
		l0.2,0.5l0.1,0.5l0.1,0.6l0.1,0.7l0.1,0.7l0.1,0.6l0.1,0.8l0.1,0.9l0.1,1l0.1,1l0.1,0.9l0.1,0.8l0.1,0.8l0.1,0.6l0.2,0.6l0.2,0.4
		l0.2,0.4h-3.5l-0.3-1l-0.1-0.5l-0.1-0.6l-0.1-0.6l-0.1-0.7l-0.1-0.7l-0.1-0.7l0-0.7l-0.1-0.7l0-0.6l-0.1-0.5l0-0.5l0-0.4l0-0.3
		l0-0.3l-0.1-0.5l-0.1-0.5l-0.2-0.5l-0.2-0.4l-0.2-0.4l-0.3-0.3l-0.3-0.3l-0.3-0.3l-0.3-0.2l-0.4-0.2l-0.5-0.2l-0.5-0.1l-0.6-0.1
		l-0.6-0.1l-0.7,0l-0.7,0h-12.5v12.8H246.4z M246.4,264.5 M277.6,264.5v-29.8h3V251l18.4-16.3h4.1l-14,12.5l14,17.3h-3.8l-12.4-15.4
		l-6.3,5.5v9.9H277.6z M277.6,264.5 M307,264.5v-29.8h4.7l12.6,27.1l12.8-27.1h4.4v29.8h-2.9l0.1-27.3L326,264.5h-3.4l-13-27.3
		l0.3,27.3H307z M307,264.5 M348.5,264.5v-29.8h22.9v2.8h-20v10.5h18.4v2.8h-18.4v11h20v2.8H348.5z M348.5,264.5 M376.9,264.5v-29.8
		h3.8l20.8,26.8v-26.8h2.9v29.8h-3.9l-20.7-26.8v26.8H376.9z M376.9,264.5 M411.6,264.5v-29.8h3v29.8H411.6z M411.6,264.5
		 M420.7,254.6h3v0.2l0,0.8l0.1,0.8l0.2,0.8l0.3,0.7l0.3,0.7l0.5,0.6l0.5,0.6l0.6,0.5l0.7,0.5l0.7,0.4l0.8,0.3l0.9,0.3l0.9,0.2
		l0.9,0.2l1,0.1l1,0l1,0l1-0.1l0.9-0.1l0.9-0.2l0.8-0.2l0.8-0.3l0.7-0.3l0.7-0.4l0.6-0.4l0.5-0.5l0.4-0.5l0.4-0.5l0.3-0.6l0.2-0.6
		l0.1-0.7l0-0.7l0-0.5l-0.1-0.5l-0.1-0.5l-0.2-0.4l-0.2-0.4l-0.3-0.3l-0.3-0.3L441,253l-0.4-0.3l-0.5-0.3l-0.6-0.3l-0.7-0.2
		l-0.8-0.3l-0.9-0.2l-1-0.2L435,251l-6.4-1.1l-0.9-0.2l-0.8-0.2l-0.8-0.3l-0.7-0.3l-0.7-0.3l-0.6-0.3l-0.5-0.4l-0.5-0.4L423,247
		l-0.4-0.5l-0.3-0.6l-0.2-0.6l-0.2-0.6l-0.1-0.7l-0.1-0.7l0-0.8l0.1-1l0.1-0.9l0.2-0.9l0.3-0.8l0.4-0.8l0.5-0.7l0.6-0.7l0.7-0.6
		l0.8-0.5l0.9-0.5l0.9-0.4l1-0.3l1.1-0.3l1.1-0.2l1.2-0.1l1.3,0l1.3,0l1.2,0.1l1.2,0.2l1.1,0.3l1,0.3l1,0.4l0.9,0.5l0.8,0.6l0.7,0.6
		l0.6,0.7l0.5,0.8l0.5,0.8l0.4,0.9l0.3,0.9l0.2,1l0.1,1.1h-2.9l-0.1-0.8l-0.1-0.7l-0.2-0.7l-0.3-0.6l-0.3-0.6l-0.4-0.5l-0.5-0.5
		l-0.5-0.4l-0.6-0.4l-0.7-0.3l-0.7-0.3l-0.8-0.2l-0.8-0.2l-0.9-0.1l-0.9-0.1l-1,0l-0.9,0l-0.9,0.1l-0.8,0.1l-0.8,0.2l-0.7,0.2
		l-0.7,0.3l-0.6,0.3l-0.6,0.4l-0.5,0.4l-0.5,0.4l-0.4,0.5l-0.3,0.5l-0.3,0.5l-0.2,0.6l-0.1,0.6l0,0.7l0,0.5l0.1,0.5l0.1,0.5l0.2,0.4
		l0.2,0.4l0.3,0.3l0.3,0.3l0.4,0.3l0.4,0.3l0.5,0.3l0.6,0.3l0.7,0.2l0.8,0.2l0.9,0.2l1,0.2l1,0.2l5.6,1l1,0.2l0.9,0.2l0.9,0.3
		l0.8,0.3l0.7,0.3l0.6,0.4l0.6,0.4l0.5,0.5l0.4,0.5l0.4,0.5l0.3,0.6l0.3,0.6l0.2,0.7l0.1,0.7l0.1,0.8l0,0.8l-0.1,1l-0.1,1l-0.3,0.9
		l-0.3,0.9l-0.5,0.8l-0.5,0.8l-0.7,0.7l-0.7,0.6l-0.9,0.6l-0.9,0.5l-1,0.4l-1.1,0.3l-1.2,0.3l-1.2,0.2l-1.3,0.1l-1.4,0l-1.4,0
		l-1.4-0.1l-1.3-0.2l-1.2-0.3l-1.1-0.4l-1-0.5l-1-0.5l-0.9-0.7l-0.8-0.7l-0.7-0.8l-0.6-0.9l-0.5-0.9l-0.4-1l-0.3-1l-0.2-1.1
		l-0.1-1.2V254.6z M420.7,254.6 M459.6,264.5v-27.1h-11.5v-2.7h26v2.7h-11.5v27.1H459.6z M459.6,264.5 M479.8,252.4h13.7l-6.8-15.2
		L479.8,252.4z M479.8,252.4 M471.3,264.5l13.7-29.8h3.4l13.5,29.8h-3l-4.2-9.2h-16.3l-4.2,9.2H471.3z M471.3,264.5 M505.9,264.5
		v-29.8h3.8l20.8,26.8v-26.8h2.9v29.8h-4l-20.7-26.8v26.8H505.9z"/>
</g>
<g id="MasterLayer_1">
</g>
</svg>
